<?xml version="1.0" encoding="utf-8"?>
<!-- Generator: Adobe Illustrator 22.0.1, SVG Export Plug-In . SVG Version: 6.00 Build 0)  -->
<svg version="1.1" id="Layer_1" xmlns="http://www.w3.org/2000/svg" xmlns:xlink="http://www.w3.org/1999/xlink" x="0px" y="0px"
	 viewBox="0 0 110.7 50.9" style="enable-background:new 0 0 110.7 50.9;" xml:space="preserve">
<style type="text/css">
	.st0{fill:#E73E3D;}
</style>
<path d="M24.1,30.8c-0.2,1.1-0.6,2.2-1.2,3.3c-0.6,1-1.4,2-2.3,2.8c-0.9,0.8-2,1.4-3.1,1.8c-1.1,0.4-2.2,0.7-3.4,0.7
	c-1.1,0-2.2-0.2-3.2-0.7c-1-0.4-1.8-1.1-2.4-1.8c-0.1-0.1-0.2-0.3-0.3-0.3l-1.6,8.8H4.5L7,30.8c0.2-1.1,0.6-2.2,1.2-3.3
	c0.6-1,1.4-2,2.3-2.8c0.9-0.8,2-1.4,3.1-1.8c1.1-0.4,2.2-0.7,3.4-0.7c1.1,0,2.2,0.2,3.2,0.7c1,0.4,1.8,1.1,2.4,1.8
	c0.7,0.8,1.1,1.7,1.4,2.8C24.2,28.5,24.3,29.6,24.1,30.8L24.1,30.8z M21.8,28.3c-0.2-0.8-0.5-1.5-1-2c-0.5-0.6-1.1-1-1.8-1.4
	c-0.7-0.3-1.5-0.5-2.4-0.5c-0.9,0-1.7,0.2-2.6,0.5c-0.8,0.3-1.6,0.8-2.3,1.4c-0.7,0.6-1.2,1.3-1.7,2c-0.5,0.8-0.8,1.6-0.9,2.5
	c-0.2,0.9-0.1,1.7,0.1,2.5c0.2,0.8,0.5,1.4,1,2c0.5,0.6,1.1,1,1.8,1.4c0.7,0.3,1.5,0.5,2.4,0.5s1.7-0.2,2.6-0.5
	c0.8-0.3,1.6-0.8,2.3-1.4c0.7-0.6,1.2-1.2,1.7-2c0.5-0.8,0.8-1.6,0.9-2.5C22,29.9,22,29.1,21.8,28.3L21.8,28.3z M43,30.8l-1.4,7.8
	h-2.2l0.4-2.3c-0.5,0.6-1.1,1.1-1.6,1.5c-0.6,0.4-1.1,0.7-1.7,0.9c-0.6,0.2-1.2,0.4-1.8,0.5c-0.6,0.1-1.2,0.2-1.7,0.2
	c-1.1,0-2.2-0.2-3.2-0.7c-1-0.4-1.8-1.1-2.4-1.8C26.7,36,26.2,35.1,26,34c-0.2-1-0.3-2.1-0.1-3.3c0.2-1.1,0.6-2.2,1.2-3.3
	c0.6-1,1.4-2,2.3-2.8c0.9-0.8,2-1.4,3.1-1.8c1.1-0.4,2.2-0.7,3.4-0.7s2.2,0.2,3.2,0.7c1,0.4,1.8,1.1,2.4,1.8
	c0.7,0.8,1.1,1.7,1.4,2.8C43.2,28.5,43.2,29.6,43,30.8L43,30.8z M40.7,28.3c-0.2-0.8-0.5-1.5-1-2c-0.5-0.6-1.1-1-1.8-1.4
	c-0.7-0.3-1.5-0.5-2.4-0.5c-0.9,0-1.7,0.2-2.6,0.5c-0.8,0.3-1.6,0.8-2.3,1.4c-0.7,0.6-1.2,1.3-1.7,2c-0.5,0.8-0.8,1.6-0.9,2.5
	c-0.2,0.9-0.1,1.7,0.1,2.5c0.2,0.8,0.5,1.4,1,2c0.5,0.6,1.1,1,1.8,1.4c0.7,0.3,1.5,0.5,2.4,0.5s1.7-0.2,2.6-0.5
	c0.8-0.3,1.6-0.8,2.3-1.4c0.7-0.6,1.2-1.2,1.7-2c0.5-0.8,0.8-1.6,0.9-2.5C40.9,29.9,40.9,29.1,40.7,28.3L40.7,28.3z M52.8,22.9
	l-0.4,2.2h-4.1L46,38.6h-2.2l2.4-13.4h-1.6l0.4-2.2h1.6l1.1-6.3h2.2l-1.1,6.3H52.8L52.8,22.9z M67.6,29.1l-1.7,9.4h-2.2l1.7-9.4
	c0.1-0.7,0.1-1.3-0.1-1.9c-0.2-0.6-0.4-1.1-0.8-1.5c-0.4-0.4-0.8-0.8-1.3-1c-0.5-0.2-1.1-0.4-1.8-0.4c-0.7,0-1.3,0.1-1.9,0.4
	c-0.6,0.3-1.2,0.6-1.7,1c-0.5,0.4-0.9,0.9-1.3,1.5c-0.4,0.6-0.6,1.2-0.7,1.9l-1.7,9.4h-2.2l3.9-21.9H58L56.7,24
	c0.8-0.6,1.6-1.1,2.5-1.4c0.9-0.3,1.8-0.5,2.7-0.5c0.9,0,1.8,0.2,2.6,0.5c0.8,0.3,1.5,0.8,2,1.5c0.5,0.7,0.9,1.4,1.1,2.3
	C67.8,27.3,67.8,28.2,67.6,29.1L67.6,29.1z M86.2,30.8l-1.4,7.8h-2.2l0.4-2.3c-0.5,0.6-1.1,1.1-1.6,1.5c-0.6,0.4-1.1,0.7-1.7,0.9
	c-0.6,0.2-1.2,0.4-1.8,0.5c-0.6,0.1-1.2,0.2-1.7,0.2c-1.1,0-2.2-0.2-3.2-0.7c-1-0.4-1.8-1.1-2.4-1.8C70,36,69.5,35.1,69.3,34
	c-0.2-1-0.3-2.1-0.1-3.3c0.2-1.1,0.6-2.2,1.2-3.3c0.6-1,1.4-2,2.3-2.8c0.9-0.8,2-1.4,3.1-1.8c1.1-0.4,2.2-0.7,3.4-0.7
	c1.1,0,2.2,0.2,3.2,0.7c1,0.4,1.8,1.1,2.4,1.8c0.7,0.8,1.1,1.7,1.4,2.8C86.4,28.5,86.4,29.6,86.2,30.8L86.2,30.8z M84,28.3
	c-0.2-0.8-0.5-1.5-1-2c-0.5-0.6-1.1-1-1.8-1.4c-0.7-0.3-1.5-0.5-2.4-0.5s-1.7,0.2-2.6,0.5c-0.8,0.3-1.6,0.8-2.3,1.4
	c-0.7,0.6-1.2,1.3-1.7,2c-0.5,0.8-0.8,1.6-0.9,2.5c-0.2,0.9-0.1,1.7,0.1,2.5c0.2,0.8,0.5,1.4,1,2c0.5,0.6,1.1,1,1.8,1.4
	c0.7,0.3,1.5,0.5,2.4,0.5s1.7-0.2,2.6-0.5c0.8-0.3,1.6-0.8,2.3-1.4c0.7-0.6,1.2-1.2,1.7-2c0.5-0.8,0.8-1.6,0.9-2.5
	C84.2,29.9,84.2,29.1,84,28.3L84,28.3z M105.2,30.8c-0.2,1.1-0.6,2.2-1.2,3.3c-0.6,1-1.4,2-2.3,2.8c-1,0.8-2,1.4-3.1,1.8
	c-1.1,0.4-2.2,0.7-3.4,0.7c-1.1,0-2.2-0.2-3.1-0.7c-1-0.4-1.8-1.1-2.4-1.8c-0.6-0.8-1.1-1.7-1.4-2.8c-0.3-1-0.3-2.1-0.1-3.3
	c0.2-1.1,0.6-2.2,1.2-3.3c0.6-1,1.4-2,2.3-2.8c1-0.8,2-1.4,3.1-1.8c1.1-0.4,2.2-0.7,3.4-0.7s2.2,0.2,3.2,0.7c1,0.4,1.8,1.1,2.5,1.8
	c0.6,0.8,1.1,1.7,1.4,2.8C105.4,28.5,105.4,29.6,105.2,30.8L105.2,30.8z M102.9,28.3c-0.2-0.8-0.5-1.5-1-2c-0.5-0.6-1.1-1-1.8-1.4
	c-0.7-0.3-1.5-0.5-2.4-0.5s-1.7,0.2-2.6,0.5c-0.8,0.3-1.6,0.8-2.3,1.4c-0.7,0.6-1.2,1.3-1.7,2c-0.5,0.8-0.8,1.6-0.9,2.5
	s-0.1,1.7,0.1,2.5c0.2,0.8,0.5,1.4,1,2c0.5,0.6,1.1,1,1.8,1.4c0.7,0.3,1.5,0.5,2.4,0.5c0.9,0,1.7-0.2,2.6-0.5
	c0.8-0.3,1.6-0.8,2.3-1.4c0.7-0.6,1.3-1.2,1.7-2c0.5-0.8,0.8-1.6,0.9-2.5C103.2,29.9,103.1,29.1,102.9,28.3L102.9,28.3z"/>
<path d="M98.2,21.5c-1.3-0.6-2.8-1.2-4-2c-0.2-0.1-0.6-0.5-0.8-0.7c-0.1-0.2-1.5-2-2.2-2.8c-0.1-0.1-0.3-0.2-0.4-0.2
	c-0.1,0-0.1,0-0.4,0.1c-1.1,0.5-3.9,1.9-4.6,2.3c0,0-0.1,0.1-0.2,0.3c0,0.1,0.1,0.2,0.1,0.3c0.4,0.5,1.2,1.6,1.9,2.6
	c0.3,0.4,0.6,0.9,0.8,1.5c0.2,1.1-0.1,1.9-0.8,7c-0.1,0.6-0.6,0.5-0.6,0c0-1.5,0.1-2.6-0.1-3.4c-0.3-0.8-0.8-2-1.8-3
	c-0.5-0.5-3.6-3.6-4.9-5c-1.2-1.3-0.6-3.1,0.5-3.7c2.7-1.6,8.5-4.2,8.5-4.2c0,0,1.2-0.7,2,0.5c0,0,1.8,3.9,2.8,5.8
	c0.5,1,0.6,1.8,4.5,4.1C98.8,21.2,98.6,21.7,98.2,21.5L98.2,21.5z M99.2,11.9c-0.2,1.8-1.8,3.1-3.5,2.9c-1.8-0.2-3-1.8-2.8-3.6
	c0.2-1.8,1.8-3.1,3.5-2.9C98.2,8.5,99.4,10.1,99.2,11.9L99.2,11.9z"/>
<path class="st0" d="M88.4,9.3c0,0-1-2.7-3.7-2.8c0,0-3.9-0.3-6.4,3c-0.4,0.5-1.9,2.7,2,3.7C80.2,13.3,80.2,13.3,88.4,9.3L88.4,9.3z
	"/>
</svg>
